<svg width="24" height="25" viewBox="0 0 24 25" fill="none" xmlns="http://www.w3.org/2000/svg">
<path fill-rule="evenodd" clip-rule="evenodd" d="M4.51104 5.78546C3.22559 7.06982 3.22559 9.1384 3.22559 13.2745V19.4012C3.22559 20.3774 4.40685 20.8676 5.09784 20.1767L7.45268 17.8218C7.53165 17.7428 7.57114 17.7034 7.62159 17.6825C7.67204 17.6617 7.72798 17.6617 7.84095 17.6617H14.1937C16.2381 17.6617 17.2603 17.6617 18.0654 17.3272C19.1403 16.8821 19.9944 16.0284 20.44 14.9537C20.7745 14.1475 20.7745 13.1253 20.7745 11.0808C20.7745 9.03639 20.7745 8.01417 20.44 7.20911C20.2197 6.67666 19.8968 6.19281 19.4895 5.78519C19.0823 5.37756 18.5987 5.05416 18.0665 4.83343C17.2603 4.5 16.2381 4.5 14.1937 4.5H12C7.86398 4.5 5.7954 4.5 4.51104 5.78546Z" fill="#48674B" fill-opacity="0.5"/>
<path d="M8.16113 9.43555H15.8388M8.16113 12.726H13.6452" stroke="#486767" stroke-width="1.25" stroke-linecap="round" stroke-linejoin="round"/>
</svg>
