<svg width="24" height="25" viewBox="0 0 24 25" fill="none" xmlns="http://www.w3.org/2000/svg">
<path fill-rule="evenodd" clip-rule="evenodd" d="M7.42863 5.88792C6.93491 5.90895 6.58017 5.95557 6.26657 6.06163C5.73024 6.24121 5.24286 6.54274 4.84277 6.94253C4.44267 7.34231 4.14075 7.82944 3.96074 8.36563C3.77148 8.9334 3.77148 9.63375 3.77148 11.0363C3.77148 11.1231 3.77148 11.167 3.78337 11.2017C3.79459 11.2354 3.81349 11.2659 3.83856 11.291C3.86363 11.3161 3.89419 11.335 3.92783 11.3462C3.96257 11.3581 4.00646 11.3581 4.09423 11.3581H19.9059C19.9937 11.3581 20.0375 11.3581 20.0723 11.3462C20.1059 11.335 20.1365 11.3161 20.1616 11.291C20.1866 11.2659 20.2055 11.2354 20.2167 11.2017C20.2286 11.1661 20.2286 11.1222 20.2286 11.0344C20.2286 9.63283 20.2286 8.93157 20.0394 8.36655C19.8596 7.83002 19.5578 7.34252 19.1577 6.94241C18.7576 6.54229 18.2701 6.24048 17.7335 6.06072C17.4199 5.95557 17.0643 5.90895 16.5715 5.88792V8.15717C16.5715 8.5209 16.427 8.86973 16.1698 9.12692C15.9126 9.38411 15.5638 9.5286 15.2001 9.5286C14.8363 9.5286 14.4875 9.38411 14.2303 9.12692C13.9731 8.86973 13.8286 8.5209 13.8286 8.15717V5.87146H10.1715V8.15717C10.1715 8.5209 10.027 8.86973 9.7698 9.12692C9.51261 9.38411 9.16378 9.5286 8.80006 9.5286C8.43633 9.5286 8.0875 9.38411 7.83031 9.12692C7.57312 8.86973 7.42863 8.5209 7.42863 8.15717V5.88792Z" fill="#486767"/>
<path d="M3.77148 12.7285C3.77148 12.5127 3.77148 12.4048 3.83823 12.3381C3.90497 12.2714 4.01286 12.2714 4.22863 12.2714H19.7715C19.9873 12.2714 20.0951 12.2714 20.1619 12.3381C20.2286 12.4048 20.2286 12.5127 20.2286 12.7285V13.1856C20.2286 16.6334 20.2286 18.3578 19.1571 19.4284C18.0865 20.4999 16.3621 20.4999 12.9143 20.4999H11.0858C7.638 20.4999 5.91366 20.4999 4.84303 19.4284C3.77148 18.3578 3.77148 16.6334 3.77148 13.1856V12.7285Z" fill="#48674B" fill-opacity="0.5"/>
<path d="M8.7998 4.5V8.15714M15.1998 4.5V8.15714" stroke="#486767" stroke-width="1.25" stroke-linecap="round"/>
</svg>
